<svg xmlns="http://www.w3.org/2000/svg" width="170mm" height="451.567" viewBox="0 0 170 119.477" fill="currentColor"><path style="fill-opacity:1;fill-rule:nonzero;stroke:none;stroke-width:.352778" d="M8.682 6.102v107.273h152.636V6.102zm68.596 16.332 7.81 8.301-1.283 1.525-6.504-6.95-13.956 15.442.116 18.445-1.924 1.172-.14-20.361zm16.21 6.41 9.267 10.136-1.43 1.32-7.821-8.573-13.953 15.44v11.03c8.896-2.905 19.53-4.809 28.921-2.202l-.52 1.874c-9.2-2.554-19.695-.572-28.401 2.347v4.63h-1.945v-3.953c-8.403 3.034-14.791 6.73-16.096 7.51 0 0-.003-2.246.02-2.26 2.575-1.455 8.586-4.649 16.075-7.285V46.42zm-58.24 46.745.795 1.733 3.234 8.153c.969.042 1.882.186 2.736.42l.312.085-.353 1.298-.32-.084a10.224 10.224 0 0 0-1.821-.336l2.405 6.06h-1.593l-2.418-6.12c-2.159.036-4.36.546-6.313 1.196l-1.948 4.924H28.37l1.684-4.238c-2.399.962-4.142 1.972-4.491 2.182l-.5.3v-.583c-.006-.98-.005-.98.175-1.082.878-.499 2.922-1.581 5.484-2.508zm52.095 1.355h1.48v4.016h2.886v1.22h-2.886v7.162c0 1.87.865 2.11 1.622 2.11.3 0 .626-.042.975-.083l.216-.03v1.226l-.132.018a9.58 9.58 0 0 1-1.148.072c-1.997 0-3.013-1.118-3.013-3.313v-7.161h-1.45V80.96h1.45zm-52.04 2.464-2.76 6.993c1.636-.481 3.398-.842 5.16-.926zm16.535 1.342c3.548.024 6.313 2.676 6.29 6.037.023 3.355-2.743 6-6.284 6.03-1.347 0-2.651-.456-3.638-1.25 0 .956-.006 1.52-.011 2.092-.006.625-.013 1.25-.013 2.417v.15h-1.424V80.96h1.449v1.227c1.016-.914 2.32-1.437 3.631-1.437zm13.63 0c3.59 0 5.406 1.714 5.406 5.087 0 1.106.006 2.206.013 3.307.006 1.106.012 2.207.012 3.313v.15h-1.45v-1.064c-1.003.836-2.187 1.274-3.45 1.274-2.514 0-5.225-1.257-5.225-4.004 0-2.009 1.623-3.518 3.776-3.518h4.84c-.175-2.309-1.425-3.301-4.15-3.301-.98.042-2.356.319-3.282.968l-.24.169v-1.438l.078-.047c.956-.56 2.332-.896 3.673-.896zm15.681 0c.434 0 .825.03 1.227.096l.127.018v1.274l-.174-.03a7.711 7.711 0 0 0-1.197-.09 5.263 5.263 0 0 0-3.638 1.504v9.084h-1.449V80.96h1.45v1.154c1.046-.872 2.362-1.364 3.654-1.364zm19.885 0c1.762 0 3.15.8 3.926 2.249 1.203-1.473 2.814-2.25 4.679-2.25 2.969 0 4.738 1.877 4.738 5.022v6.836h-1.456v-6.632c0-2.514-1.197-3.957-3.283-3.957-1.606 0-2.97.716-3.956 2.07v8.519h-1.478v-7.648c0-1.089-.669-2.941-3.17-2.941-1.359 0-2.622.566-3.565 1.594v8.995h-1.45V81.002h1.45v1.167c1.046-.914 2.296-1.42 3.565-1.42zm23.87 0c1.582 0 3.08.65 4.21 1.822 1.16 1.208 1.791 2.808 1.731 4.4l-.006.145h-10.486c.126 2.562 2.206 4.408 5.014 4.408 1.762 0 3.494-.602 4.75-1.654l.247-.204v1.43l-.053.043c-1.215 1.016-3.188 1.677-5.034 1.677-3.685 0-6.355-2.61-6.355-6.193.072-3.294 2.7-5.874 5.983-5.874zm14.6 0c3.589 0 5.411 1.714 5.411 5.087 0 1.106.005 2.206.012 3.307.005 1.106.012 2.207.012 3.313v.15h-1.456v-1.064c-.997.836-2.182 1.274-3.444 1.274-2.52 0-5.226-1.257-5.226-4.004 0-2.009 1.619-3.518 3.771-3.518h4.846c-.174-2.309-1.426-3.301-4.155-3.301-.974.042-2.357.319-3.283.968l-.234.169v-1.438l.072-.047c.962-.56 2.332-.896 3.673-.896zm-87.738 1.268c-1.293 0-2.591.584-3.56 1.594v6.565c.963.872 2.28 1.372 3.632 1.372a4.942 4.942 0 0 0 3.505-1.449 4.575 4.575 0 0 0 1.305-3.313 4.57 4.57 0 0 0-1.316-3.332 4.848 4.848 0 0 0-3.446-1.437zm73.139 0c-2.424 0-4.287 1.63-4.498 3.896h9.02c-.235-2.194-2.19-3.896-4.522-3.896zM64.89 86.492c-1.593 0-2.711.926-2.711 2.255 0 2.206 2.459 2.802 3.914 2.802 1.3 0 2.46-.475 3.355-1.372v-3.685zm74.035 0c-1.593 0-2.705.926-2.705 2.255 0 2.206 2.459 2.802 3.907 2.802 1.305 0 2.465-.475 3.355-1.372v-3.685z"/></svg>
