<svg height="48" viewBox="0 96 960 960" width="48" xmlns="http://www.w3.org/2000/svg"><path d="M480.142 417.73 269.723 627.864l56.761 55.297 153.658-153.658 153.657 153.658 56.761-55.297zM480.102 96q98.658 0 186.211 37.68 87.553 37.68 152.94 103.067t103.068 152.9Q960 477.163 960 575.82q0 99.84-37.68 187.393-37.68 87.552-103.022 152.364-65.343 64.81-152.878 102.617Q578.886 1056 480.204 1056q-99.863 0-187.449-37.786-87.587-37.784-152.376-102.558Q75.59 850.883 37.795 763.32 0 675.754 0 575.86q0-98.697 37.807-186.246 37.807-87.548 102.617-152.9 64.812-65.353 152.325-103.034Q380.263 96 480.103 96z" style="opacity:.5;fill:#1a1a1a;stroke-width:1.18199"/></svg>