<svg xmlns="http://www.w3.org/2000/svg" width="112mm" height="120mm" viewBox="0 0 112 120"><path d="M63.004 5.003c-.26-.047-.67.386-1.56 1.237-2.014 1.924-3.996 3.156-7.562 4.7-6.313 2.735-7.848 3.82-9.562 6.762-.525.9-.641.975-2.75 1.74-4.723 1.716-10.187 4.773-14.09 7.883-8.061 6.423-14.178 15.822-16.799 25.814-1.19 4.536-1.41 6.444-1.467 12.706-.029 3.212-.062 6.625-.073 7.583l-.02 1.742-1.682-1.798c-2.393-2.557-2.77-2.415-2.4.899.675 6.044 2.969 9.816 8.381 13.783 1.097.803 1.52 1.308 2.589 3.087 7.938 13.217 21.492 21.908 36.78 23.584 9.632 1.056 20.128-.967 28.486-5.49 14.378-7.782 23.863-21.927 25.627-38.22.364-3.36.157-10.316-.4-13.47-1.724-9.741-6.1-18.57-12.64-25.504l-1.358-1.44.314-1.796c.691-3.952.673-4.563-.138-4.563-.841 0-2.888.617-4.157 1.253-1.222.612-1.275.62-1.796.278-.295-.193-.59-.594-.656-.89-.43-1.958-.624-2.13-1.746-1.55-.614.318-.655.303-4.076-1.42-3.004-1.512-3.413-1.775-3.126-2.011.49-.402 1.899-2.641 1.9-3.018 0-.288-.377-.32-3.159-.262-3.707.077-5.258-.143-10.778-1.53-2.085-.525-3.825-.98-3.866-1.014-.04-.033.257-.464.66-.957 1.557-1.9 2.293-4.58 1.78-6.478-.289-1.066-.397-1.592-.656-1.64zm11.06 17.115 1.915.783c1.497.612 5.035 2.355 5.474 2.696.074.057-.765 1.52-.986 1.719-.519.47-.83 1.967-1.155 5.55l-.36 3.97-.655.62c-.36.34-.956 1.219-1.325 1.951-.45.897-1.093 1.72-1.963 2.519-.809.741-1.5 1.608-1.843 2.31-.484.99-.539 1.303-.455 2.606.053.822.264 1.844.477 2.3.21.45 1.309 1.747 2.442 2.882 1.675 1.677 2.387 2.228 3.815 2.954l1.754.893-.089 1.76c-.048.967-.113 1.786-.142 1.82-.03.034-.982-.546-2.115-1.288-3.422-2.243-7.102-3.795-8.994-3.795-.778 0-.751-.165-.439 2.664.314 2.835.641 3.171.551.566-.045-1.3.007-2.026.152-2.08.38-.146 2.038.242 3.393.792 2.56 1.04 5.103 2.82 7.997 5.594l.953.914.123-1.51c.067-.83.194-2.558.282-3.84l.16-2.332-1.512-.688c-4.208-1.918-7.06-4.852-7.367-7.579-.097-.854-.074-.904.41-.904.28 0 1.005.094 1.61.209.895.17 1.283.388 2.07 1.162.532.525 1.025 1.215 1.095 1.534.16.73.505.758.505.041 0-.527.023-.535 1.135-.443.844.07 1.37.26 2.05.738 1.082.763 1.185.534.23-.509-.597-.65-.83-.758-1.834-.84-1.143-.095-1.15-.1-1.033-.685.064-.324.003-.867-.138-1.206-.324-.782-.164-.983 1.379-1.74 2.025-.993 3.884-.76 5.46.687l.588.54-.325-.642c-.735-1.452-2.109-2.083-4.037-1.855-.824.098-1.012.058-1.095-.23-.054-.19-.443-1.5-.863-2.909-.694-2.329-.764-2.785-.769-5.02-.006-2.969.392-4.949 1.41-7.017.67-1.36 1.723-2.514 2.295-2.514.587 0 .987 4.4.696 7.667-.127 1.423-.218 3.301-.201 4.173l.03 1.584.186-1.537c.627-5.155 1.306-7.144 3.134-9.177.917-1.02 2.33-1.89 3.067-1.89.335 0 .361.129.248 1.209-.07.665-.543 2.837-1.053 4.827-1.364 5.32-1.299 7.762.304 11.384.424.958.891 2.11 1.038 2.562.387 1.192.357 3.551-.053 4.31-.316.583-.312.69.057 1.738.569 1.616 2.664 5.201 4.842 8.285 3.738 5.295 5.255 7.626 6.132 9.425 1.309 2.683 1.17 4.009-.39 3.749-.802-.134-2.186-.741-3.414-1.498-.778-.48-.882-.503-.74-.168.51 1.205 1.318 3.804 1.443 4.642.396 2.635-.826 2.787-3.684.46l-1.135-.924v1.592c0 .875-.09 1.905-.2 2.29-.253.882-.971 1.656-1.537 1.656-.695 0-2.174-1.06-3.262-2.338-.974-1.144-1.014-1.167-1.38-.801-.207.207-.644 1.11-.971 2.006-.327.896-.678 1.657-.78 1.691-.313.104-2.638-1.406-4.172-2.71-1.833-1.558-3.811-3.862-5.579-6.497-.76-1.134-1.383-2.016-1.383-1.958 0 .275 1.494 3.322 2.4 4.893l1.019 1.766-.467 1.308c-.256.719-1.908 5.412-3.669 10.428a5051.024 5051.024 0 0 1-4.727 13.406c-.838 2.358-1.494 4.316-1.458 4.352.036.037.85-1.985 1.808-4.491.958-2.507 3.432-8.868 5.497-14.136l3.755-9.58 1.462 1.39a45.703 45.703 0 0 0 3.135 2.661c.92.7 1.73 1.366 1.8 1.479.39.634 1.933-.359 2.663-1.715l.386-.717.73.573c2.746 2.158 4.92 1.419 5.967-2.029l.426-1.4.857.49c1.21.69 2.402.664 3.228-.074.565-.505.655-.746.816-2.178.113-1.008.106-1.75-.017-1.98-.11-.204-.199-.403-.199-.443 0-.04.608-.068 1.351-.064l1.35.008-.132 1.01c-.427 3.24-3.598 10.769-6.266 14.872-7.762 11.943-20.46 19.687-34.597 21.102-4.169.417-9.323.179-13.35-.616-11.707-2.312-21.841-8.773-28.95-18.458-.666-.908-1.18-1.68-1.143-1.716.038-.035.76.115 1.606.335 1.683.437 4.929.536 6.117.187.627-.184.731-.149 1.2.409 1.29 1.533 3.611 2.205 5.111 1.48l.827-.4-.09 1.452c-.078 1.275-.03 1.538.398 2.166.701 1.027 1.883 1.635 3.19 1.639l1.077.003v1.812c0 .998.058 2.645.13 3.662.124 1.74.165 1.869.698 2.184.312.184.599.334.638.334.039 0 .042-1.906.007-4.235l-.063-4.236.507-.47c.28-.26.636-.654.792-.876.244-.348.395-.38 1.092-.22 1.027.234 2.032-.027 3.107-.805.975-.706 1.904-2.423 1.904-3.52 0-.633.092-.792.575-.992 1.755-.727 1.86-4.236.226-7.565-.622-1.266-1.246-2.13-2.41-3.33-1.771-1.83-1.718-1.815-4.232-1.225-1.935.454-1.48.525.717.111l1.537-.29 1.383 1.447c2.37 2.477 3.641 5.783 3.239 8.417-.081.53-.266 1.106-.411 1.28-.305.368-.83.426-.83.093 0-.824-2.437-4.487-2.984-4.487-.559 0-.573.617-.027 1.19.863.907 1.946 2.874 2.179 3.961.321 1.499-.038 2.697-1.136 3.796-.973.973-1.582 1.205-2.644 1.005-.69-.13-.716-.167-.716-1.04 0-1.066-.73-3.152-1.161-3.318-.59-.227-.706.254-.284 1.185.538 1.186.554 2.938.034 3.791-1.085 1.78-4.676 1.735-5.376-.067-.33-.848-.084-2.494.622-4.176.347-.827.632-1.62.632-1.764 0-.564-.753-.195-1.403.687-.73.993-2.313 2.127-2.968 2.127-1.249 0-2.653-.859-3.76-2.3-.21-.274-.372-.278-1.325-.03-.597.154-1.93.281-2.965.281-4.341 0-9.352-2.434-13.299-6.46-1.961-2.001-2.981-3.66-3.782-6.153-.547-1.7-1.093-4.586-.908-4.79.043-.047.963.853 2.043 1.999 2.452 2.598 3.205 2.791 2.428.623-.422-1.182-.412-3.78.024-5.694l.343-1.51.694 1.299c.814 1.523 1.728 2.533 2.787 3.08.969.498 1.403.495 1.536-.012.058-.221.556-.692 1.107-1.045 1.445-.927 3.6-3.325 5.476-6.095 2.936-4.33 6.993-7.692 13.05-10.81 1.465-.753 2.705-1.408 2.755-1.454.05-.046-.78.232-1.845.618-7.178 2.598-11.743 6.069-15 11.401-2.767 4.53-5.023 6.974-6.172 6.686-.896-.225-2.35-1.74-3.023-3.15l-.647-1.355.113-3.703c.266-8.672 2.733-16.538 7.458-23.777 4.967-7.609 12.208-13.753 20.46-17.363 1.24-.542 2.382-.987 2.538-.988.224-.002.261.262.173 1.233-.127 1.394.214 3.29.858 4.78l.43.995-.79.952a14.01 14.01 0 0 0-2.278 3.892c-.398 1.017-1.442 5.846-1.746 8.077-.09.662-.23.973-.436.973-.7 0-3.47 1.707-3.277 2.02.05.081.928.415 1.951.742 1.022.327 1.854.646 1.848.71-.006.063-.537.453-1.179.866-3.337 2.15-3.52 2.53-1.178 2.445 1.187-.043 1.391.008 1.851.47.59.59.643 1.151.219 2.354-.368 1.042-.205 1.118.22.102.73-1.75.212-3.138-1.308-3.498l-.729-.172 2.384-1.431c1.31-.787 2.386-1.478 2.39-1.535.006-.12-3.864-1.246-4.247-1.236-.141.004-.256-.09-.256-.209 0-.368 2.083-1.19 3.484-1.375l1.332-.176-1.067-.16c-1.064-.158-1.067-.16-.945-.806.068-.356.143-.673.168-.704.08-.103 5.932.793 6.384.977.277.113.878 1.02 1.62 2.448.648 1.249 1.309 2.377 1.467 2.509.158.131.784.28 1.39.33l1.103.091-.639 1.154a48.044 48.044 0 0 1-.692 1.227c-.029.04-.59-.26-1.248-.667-1-.617-1.38-.737-2.32-.73-.617.004-1.347.131-1.622.283-.459.255-.367.283 1.132.352 1.517.07 1.708.13 2.706.863.591.434 1.476 1.31 1.966 1.947 1.305 1.695 3.852 4.038 5.05 4.645.573.29 1.535.627 2.137.748l1.094.22.118 1.257.357 3.884c.251 2.741.531 3.485 1.127 2.99.157-.13.286-.445.286-.699 0-.254.126-.567.28-.695.357-.297.61-.006 1.564 1.798.64 1.211.79 1.363 1.397 1.421 1.338.129 1.593-.649.754-2.303-.86-1.694-.57-2.824.608-2.376 1.196.455 1.167-.334-.088-2.456a36.75 36.75 0 0 0-1.836-2.73l-1.047-1.397 1.019-1.144c.56-.628 1.35-1.775 1.757-2.548.837-1.594.867-1.6 2.905-.663.585.27 1.144.49 1.241.49.098 0 .605.27 1.127.6l.949.603.136-.621c.075-.341.073-1.046-.006-1.567-.324-2.16-1.608-3.831-4.08-5.312-1.487-.89-1.48-.933.163-1.176 1.155-.17 2.5-.817 2.856-1.372.326-.509 1.321-7.255 1.103-7.473-.07-.07-1.122-.17-2.34-.223-1.842-.081-2.607-.012-4.57.413-1.296.281-2.879.708-3.518.95l-1.161.438.393 1.374c.216.756.393 1.467.393 1.58 0 .119-.628.206-1.486.206-.817 0-1.67.046-1.896.103-.334.083-.42-.011-.462-.513a42.643 42.643 0 0 0-.167-1.486l-.113-.87h-1.6c-2.874 0-6.425.833-8.93 2.097l-1.024.517-2.526-.37c-1.39-.202-2.649-.415-2.798-.473-.22-.084-.173-.575.233-2.5.619-2.933 1.06-4.082 2.259-5.885 2.728-4.104 8.946-6.633 13.777-5.605 3.094.659 5.616 2.229 8.538 5.315 1.338 1.413 1.765 1.984 1.535 2.053l-2.061.614c-2.605.774-4.509 1.68-4.509 2.144 0 .609.16.636 1.273.213 2.811-1.068 7.007-1.537 9.932-1.11 1.048.153 1.062.147 1.128-.406.056-.473.227-.614 1.09-.895.564-.183 1.44-.618 1.948-.968 1.693-1.165 3.863-3.83 3.625-4.45-.066-.171-.658-.323-1.606-.41-3.48-.324-7.55-1.431-10.058-2.736-1.245-.648-3.028-2.23-3.028-2.689 0-.103.463-.096 1.076.017 1.545.284 5.536.081 7.153-.364zm17.572 11.496 1.091 1.193c.6.657 1.625 1.895 2.277 2.753 6.358 8.351 9.635 18.062 9.635 28.55 0 1.883-.069 3.423-.153 3.421-.085-.002-.31-.347-.5-.768-.56-1.246-1.774-3.328-2.71-4.653-.48-.68-1.634-2.297-2.564-3.594-2.06-2.872-3.716-5.52-4.778-7.635l-.798-1.59.35-1.438c.452-1.859.188-3.634-.929-6.247-1.274-2.982-1.52-4.038-1.502-6.453.01-1.323.125-2.42.299-2.846zM54.91 36.156a39.151 39.151 0 0 0-2.017.031c-2.28.084-3.24.216-4.677.642-1.473.436-3.246 1.157-3.588 1.459-.037.032.147.435.41.895.262.46.523.813.58.785.056-.028.659-.341 1.339-.696 2.46-1.284 5.124-1.894 8.558-1.959 1.676-.031 1.798-.063 1.742-.443-.07-.474-.692-.686-2.347-.714zm8.337 2.066c.308-.021.408.06.478.295.145.49 1.157 5.749 1.157 6.015 0 .286-.622.24-1.23-.092-.443-.24-.609-.659-1.186-2.998-.37-1.494-.6-2.787-.511-2.872.088-.086.497-.217.91-.293.154-.028.28-.047.382-.055zm16.667.387c.05-.005.1.002.149.018.34.113 1.708 4.749 1.43 4.842-.124.04-.773.44-1.443.888-.67.447-1.52.9-1.89 1.006-.903.259-1.54.216-2.519-.171-.45-.178-.846-.342-.878-.363-.033-.022.59-.667 1.383-1.432.91-.88 1.738-1.932 2.246-2.858.74-1.348 1.168-1.9 1.522-1.93zM49.1 40.466c.056-.009.094-.007.108.008.141.15 2.133 5.04 2.257 5.543.132.533.101.563-.575.563-.393 0-.807-.115-.921-.256-.292-.36-2.508-4.82-2.508-5.047 0-.155 1.248-.748 1.639-.811zm10.395 1.884c.354-.01.738.011 1.138.066 1.204.164 1.243.189 1.513.97.153.441.254.816.225.834-.028.017-.42-.041-.872-.13-.45-.09-1.465-.149-2.254-.132l-1.434.03-.064-.64c-.058-.593-.003-.655.794-.87.277-.074.6-.117.954-.128zm-1.48 2.489 2.05.021c1.218.013 2.583.165 3.365.374 2.586.69 5.756 2.632 6.751 4.135.575.867 1.207 2.66 1.009 2.858-.056.055-.645-.166-1.31-.492-1.53-.75-3.149-1.133-4.265-1.007-.478.054-1.646.444-2.595.867-.949.422-2.233.986-2.853 1.253-.849.366-1.48.482-2.561.47-2.265-.025-3.52-.442-5.585-1.857l-.871-.597.336-.656c.972-1.895 1.414-2.312 2.877-2.707 1.2-.325 1.553-.538 2.524-1.52zm-14.262 2.254-.492.604c-.876 1.077-.91 2.833-.074 3.895.58.737.705.65.162-.112-.692-.972-.732-2.14-.114-3.362zm13.901 1.456c-.243.021-.525.12-.879.291-.894.433-1.048.609-.774.883.237.237.884.148 1.407-.195.28-.184.735-.287 1.02-.233.425.081.472.049.272-.192-.342-.412-.64-.59-1.046-.554zm7.708 3.921c.129.006-.235.568-1.144 1.8-.967 1.312-2.118 2.223-3.374 2.671-1.5.535-3.17.23-4.928-.902-1.1-.707-3.45-3.044-2.819-2.801 4.994 1.918 9.169 1.762 11.788-.441.257-.217.418-.33.477-.327zm24.044 4.278c-.033.032-.006.225.096.6.287 1.036.11 2.266-.429 2.995l-.431.583h.596c.327 0 .718-.148.868-.328.358-.432.298-1.634-.138-2.763-.29-.747-.507-1.14-.562-1.087zm-36.085 1.621c-.063-.017-.03.047.083.19.17.21.677.55 1.127.756.451.205 1.05.369 1.333.363.336-.006.19-.096-.423-.261-.514-.139-1.252-.475-1.64-.747-.261-.184-.418-.283-.48-.3zm35.054 4.607c-.02 0 0 .7.042 1.557.068 1.346.02 1.639-.36 2.152l-.44.594h.58c1.173 0 1.364-.9.643-3.034-.236-.698-.445-1.27-.465-1.27zm3.827 1.127.095 1.544c.088 1.447.06 1.585-.46 2.203l-.555.66h.6c.938 0 1.364-.62 1.209-1.752a8.042 8.042 0 0 0-.509-1.797zm-50.018 1.536c-.085 0-.124.744-.087 1.653.08 1.977-.417 3.861-1.43 5.421-.688 1.057-4.078 4.608-4.399 4.608-.1 0-.447-.51-.773-1.134-1.561-2.988-5.427-4.838-8.875-4.247-1.545.265-3.905 1.355-4.981 2.302-.652.573-.601.558.548-.164 1.924-1.208 3.795-1.739 5.743-1.63.978.054 2.056.268 2.777.549 2.021.789 4.144 3.068 4.686 5.032.11.4.266.724.345.721.28-.011 1.802-1.255 3.196-2.614 2.329-2.27 3.655-4.663 3.943-7.119.073-.618.194-1.123.27-1.123.277 0 2.082 2.664 2.727 4.027.621 1.311.665 1.549.665 3.596 0 2.276.2 2.325.428.105.25-2.446-.84-5.19-3.302-8.302-.73-.924-1.397-1.68-1.482-1.68zm-2.716 13.758a.711.711 0 0 0-.256.043c-.14.057-.025.103.256.103.282 0 .398-.046.257-.103a.714.714 0 0 0-.257-.043z"/></svg>