<svg xmlns="http://www.w3.org/2000/svg" width="120mm" height="120mm" viewBox="0 0 120 120" fill="currentColor"><path d="M59.945 4.999c-2.003 0-4.005.052-5.031.157C44.54 6.215 35.351 9.728 27.238 15.738a55.623 55.623 0 0 0-14.78 16.454c-4.072 6.953-6.44 14.323-7.303 22.721-.207 2.018-.207 8.168 0 10.154.76 7.274 2.538 13.434 5.67 19.651 8.877 17.617 26.512 29.153 46.177 30.206 6.85.367 13.841-.573 20.306-2.73 6.835-2.28 12.899-5.706 18.424-10.407 1.577-1.342 4.713-4.478 6.056-6.056 6.222-7.313 10.38-15.917 12.192-25.219 2.763-14.195-.136-28.83-8.094-40.859-5.363-8.107-12.668-14.581-21.331-18.905-6.241-3.114-12.358-4.863-19.57-5.593-1.031-.105-3.036-.157-5.04-.156zm-5.681 10.67c.076.08.65 2.019.65 2.193 0 .168.116.125-3.725 1.363-1.847.595-3.37 1.09-3.385 1.101-.056.04.265.935.336.935.126 0 2.876-.897 4.558-1.487.875-.307 1.603-.546 1.619-.53.05.05.673 2.214.645 2.242-.015.014-.741.244-1.614.509a190.4 190.4 0 0 0-3.114.98l-1.527.499.151.499c.083.274.165.513.183.53.037.037 3.694-1.185 5.77-1.928.777-.278 1.45-.483 1.495-.455.045.028.082.132.081.23 0 .1.117.649.261 1.222.144.573.246 1.058.226 1.076-.02.019-2.339.78-5.154 1.692-2.814.912-5.16 1.674-5.214 1.694-.102.038-.113.004-.475-1.438-.37-1.477-1.09-3.925-1.695-5.765-.321-.98-.569-1.798-.549-1.817.105-.105 10.425-3.4 10.477-3.346zm14.369 1.117c.084-.033 10.602 2.649 10.674 2.72.037.037-.121.645-.45 1.734-.138.46-.242.675-.327.675-.069 0-1.692-.405-3.607-.9-1.916-.496-3.529-.9-3.585-.9-.094 0-.422.963-.352 1.033.056.056 3.372.908 5.055 1.3.922.214 1.71.42 1.75.457.044.04-.074.58-.284 1.305-.323 1.114-.376 1.235-.525 1.203-.09-.019-1.031-.277-2.09-.573-2.627-.735-4.59-1.228-4.65-1.167-.028.028-.237.685-.464 1.46-.388 1.322-.426 1.41-.617 1.423-.212.015-3.06-.713-3.153-.806-.028-.028.225-.9.564-1.936.615-1.883 1.414-4.664 1.778-6.186.106-.445.233-.824.283-.842zm-31.505 4.561c.064.005 1.763 1.997 1.801 2.112.013.038-.613.624-1.391 1.3-.779.678-1.483 1.307-1.567 1.4-.149.165-.126.196 1.981 2.645 1.316 1.53 2.11 2.516 2.076 2.579-.032.055-.628.618-1.326 1.25-.699.633-1.288 1.15-1.31 1.151-.023.001-1-1.119-2.17-2.489-1.171-1.37-2.155-2.483-2.187-2.475-.031.008-.708.623-1.504 1.366-.796.743-1.495 1.362-1.553 1.376-.125.03-1.852-1.948-1.82-2.084.026-.11 8.883-8.138 8.97-8.131zm48.146 2.4c.155.036.652.495 3.028 2.652 2.606 2.367 3.301 3.12 3.757 4.071.24.501.274.651.274 1.228 0 .554-.037.735-.233 1.149-.272.572-.852 1.149-1.496 1.487-.394.207-.522.231-1.218.23-.655 0-.86-.034-1.29-.215-.283-.118-.527-.191-.544-.162-.017.028-.093.807-.168 1.73-.075.923-.153 1.762-.174 1.863-.021.101-.07.184-.11.184-.135 0-2.832-2.484-2.858-2.633-.014-.081.05-.526.143-.988.092-.463.222-1.173.29-1.578l.121-.737-.705-.667-.705-.667-.981 1.015c-.54.558-1.028 1.015-1.085 1.015-.058 0-.664-.504-1.347-1.119l-1.243-1.118 2.325-2.34c1.279-1.288 2.705-2.766 3.17-3.283l.95-1.057c.033-.035.047-.07.099-.06zm.749 4.203-.405.442-.405.442.47.441c.994.934 1.88 1.685 2.344 1.988.542.353.775.39.987.154.26-.288.098-.553-1.005-1.641a38.729 38.729 0 0 0-1.512-1.425zm-27.138 8.543c.658-.019 1.25.392 1.442 1.086.284 1.028-.655 3.069-2.341 5.093-.3.36-.592.666-.649.68-.127.029-1.535-1.425-2.263-2.336-1.072-1.341-1.609-2.593-1.404-3.275.183-.61.866-1.082 1.572-1.084.479-.002 1.098.294 1.505.718l.318.332.401-.438c.22-.242.559-.515.752-.609.22-.107.448-.16.667-.167zm38.703.065c.087.085 5.165 9.372 5.202 9.512.023.089-.271.274-1.036.653-.93.46-1.082.514-1.179.409-.06-.066-.803-1.391-1.65-2.945a412.571 412.571 0 0 0-1.738-3.17l-.2-.347-.423.213a7.78 7.78 0 0 0-.45.237c-.036.031 1.245 2.372 2.289 4.184.444.772.809 1.444.809 1.495 0 .095-2.016 1.136-2.072 1.07a61.085 61.085 0 0 1-.712-1.348c-.717-1.378-1.954-3.664-2.226-4.113l-.16-.264-.49.247-.491.248.388.712a221.198 221.198 0 0 0 2.874 5.04c.293.487.5.916.462.952-.04.035-.218.112-.399.17-.18.057-.672.264-1.095.46-.422.195-.798.355-.837.355-.038 0-.121-.082-.184-.184-.185-.296-5.034-9.181-5.088-9.322-.038-.1.166-.226.916-.565a111.177 111.177 0 0 0 5.838-2.894c.878-.473 1.622-.835 1.652-.805zm-75.657 1.136c.669-.002 2.2.024 3.956.07 2.342.061 4.599.113 5.016.115.583.003.757.03.757.115 0 .061-.31.844-.69 1.74l-.69 1.628-.977-.029-.978-.028-.842 1.98-.842 1.98.678.682c.484.486.667.725.639.833-.022.082-.33.84-.686 1.685-.355.845-.683 1.535-.729 1.535-.088 0-6.723-7.114-6.904-7.403-.096-.152-.001-.42.885-2.504.546-1.283 1.018-2.357 1.049-2.387a2.59 2.59 0 0 1 .358-.012zm40.45 2.815c.894-.036 1.872.6 2.126 1.5.153.547.112 1.567-.095 2.329-.378 1.389-2.145 4.677-5.163 9.604-2.566 4.19-3.977 6.74-3.886 7.025.056.177.282.28.46.21.063-.024.317-.439.565-.92.986-1.92 4.278-7.463 4.57-7.697.278-.223 1.632-.057 2.193.268.718.417 1.72 1.783 1.769 2.413.022.285-1.774 3.472-4.007 7.112-.916 1.493-1.013 1.688-.933 1.863.124.274.375.244.611-.07.553-.738 2.972-4.822 4.685-7.909l.65-1.174.707.032c.593.027.794.074 1.245.296.956.471 1.591 1.282 1.673 2.135.028.29-.025.54-.23 1.073-.595 1.554-1.383 3.053-3.375 6.42-.84 1.421-.866 1.505-.532 1.716.206.13.337-.032 1.205-1.5 2.056-3.475 2.702-4.715 3.364-6.457l.353-.925.457.054c.931.109 1.85.721 2.253 1.502.26.503.455 1.478.455 2.28 0 1.507-.335 2.637-1.922 6.49-.913 2.214-1.606 3.658-2.671 5.567-1.468 2.63-4.462 7.322-5.071 7.944-.412.42-1.044.752-1.701.89-.575.12-2.259.102-3.128-.034-1.425-.224-4.285-.956-5.46-1.398-1.574-.592-2.537-1.324-2.977-2.266-.32-.681-.445-1.33-.608-3.13a97.68 97.68 0 0 0-.412-3.52c-.485-3.569-.49-3.64-.489-6.305.001-2.743.082-3.583.489-5.083.234-.862.413-1.3 1.42-3.489 2.135-4.633 3.114-6.32 7.832-13.495 1.157-1.76 2.16-2.84 2.982-3.213.188-.085.39-.13.596-.138zm-39.532.569a.512.512 0 0 0-.157.014c-.015.014.491.57 1.124 1.236.633.666 1.16 1.2 1.172 1.187.052-.059.94-2.192.94-2.259 0-.058-2.429-.19-3.079-.178zm29.527.214c1.177 0 2.267.935 3.965 3.404.47.684.534.82.457.964-.05.093-.636 1.006-1.302 2.03a74.595 74.595 0 0 0-2.578 4.214 3.438 3.438 0 0 1-.239.388c-.058-.002-2.3-6.861-2.395-7.327-.27-1.33-.098-2.359.493-2.95.528-.527.96-.723 1.599-.723zM15.693 52.164l4.728.033c2.601.018 4.736.039 4.746.048.01.008.021.769.027 1.69l.01 1.675-1.722.022-1.723.021.044 2.353c.025 1.294.059 2.398.076 2.453.023.075.474.107 1.733.123l1.702.022.072 1.665c.04.946.04 1.688 0 1.72-.04.03-.55.031-1.136.001-.586-.03-2.68-.054-4.656-.056-1.975-.002-3.602-.015-3.616-.03-.014-.013-.035-.78-.047-1.703l-.022-1.679h3.428l-.025-2.17c-.014-1.193-.045-2.307-.069-2.476l-.044-.307H15.8l-.053-1.167a51.695 51.695 0 0 1-.054-1.703zm88.078.977c.046.046 1.03 10.867.991 10.906-.017.017-.57.055-1.23.087l-1.2.056-.043-.196c-.024-.108-.175-1.707-.337-3.553-.16-1.847-.31-3.44-.33-3.542-.034-.16-.09-.184-.427-.183-.654.003-.636-.064-.475 1.731.079.871.226 2.303.327 3.18.104.912.152 1.619.11 1.647-.134.09-2.222.156-2.274.072-.027-.044-.095-.789-.152-1.656-.113-1.752-.386-4.722-.438-4.775-.019-.018-.276-.01-.572.017l-.538.05.033.297c.018.163.125 1.217.239 2.343.113 1.126.278 2.628.367 3.338.089.71.161 1.364.161 1.453 0 .154-.058.162-1.308.162-1.291 0-1.31-.002-1.347-.184-.048-.232-.948-10.258-.948-10.562v-.226h1.208c1.54 0 3.8-.12 6.234-.33 1.053-.092 1.93-.15 1.949-.132zM23.478 70.798c.036 0 .087.175.112.39.22 1.828.453 2.751.923 3.646.594 1.13 1.457 1.79 2.514 1.922.266.033.497.1.513.146.016.047-.2.133-.48.191-1.353.28-2.444 1.256-2.972 2.659-.232.615-.423 1.558-.496 2.448-.029.35-.082.635-.119.635-.037 0-.093-.23-.124-.512-.267-2.397-1.23-4.162-2.673-4.898-.378-.193-1.228-.4-1.646-.402-.169-.001-.307-.04-.307-.086 0-.099.034-.11.737-.237 1.341-.244 2.624-1.226 3.22-2.466.35-.731.599-1.73.676-2.719.031-.394.086-.717.122-.717zm73.602 0c.034 0 .106.39.16.867.222 1.977.747 3.329 1.636 4.218.582.581 1.091.835 1.884.94.492.065.539.17.11.243-1.665.279-2.874 1.437-3.374 3.23-.094.338-.214 1.047-.268 1.577-.053.529-.121.962-.152.962-.03 0-.1-.36-.156-.798-.257-2.042-1.036-3.592-2.19-4.356-.439-.29-1.16-.53-1.844-.614-.259-.031-.471-.088-.471-.125 0-.037.212-.104.471-.15 1.05-.186 2.107-.76 2.721-1.476.74-.863 1.234-2.235 1.352-3.76.033-.417.087-.758.12-.758zM35.33 83.62l.556.488c5.118 4.48 7.538 6.615 7.6 6.705.09.131-.06.321-1.155 1.465l-.77.804-3.252-.542a423.706 423.706 0 0 1-3.497-.592c-.236-.047 1.18 1.186 3.63 3.164.415.334.745.633.732.664-.012.03-.283.279-.602.552-.318.274-.754.703-.968.954-.214.25-.418.455-.454.455-.086 0-8.193-7.12-8.189-7.191.002-.03.453-.527 1.003-1.104l1-1.05 1.023.206c.563.113 1.871.336 2.907.497 1.036.16 2.078.323 2.316.361.238.038.422.04.41.005-.02-.055-2.557-2.145-3.807-3.136-.234-.186-.428-.368-.43-.404-.002-.037.3-.405.672-.819.372-.414.81-.916.975-1.117zm49.61 1.017c.036 0 .331.47.656 1.043.458.807.57 1.064.492 1.135-.055.05-1.482.93-3.171 1.954a330.198 330.198 0 0 0-3.108 1.898c-.055.051.349.777.456.82.102.04 1.692-.902 3.975-2.357.84-.535 1.56-.972 1.597-.971.055.002 1.067 1.715 1.157 1.957.012.035-.688.48-1.556.987-2.379 1.392-3.995 2.39-3.995 2.47 0 .124.448.887.522.888.088.001 2.015-1.19 4.54-2.807 1.049-.672 1.92-1.21 1.934-1.193.14.155 1.178 2.327 1.131 2.369-.034.03-2.106 1.3-4.606 2.821-2.5 1.521-4.6 2.78-4.667 2.796-.087.022-.316-.337-.777-1.215a100.49 100.49 0 0 0-3.146-5.5c-.466-.757-.815-1.404-.776-1.438.147-.128 9.278-5.658 9.342-5.657zm-35.353 7.856c1.325-.005 2.962.346 4.44.984 1.066.46 1.584.79 2.241 1.435 1.232 1.207 1.564 2.76.971 4.54-.51 1.534-1.526 2.645-2.86 3.13-.695.253-2.398.29-3.436.074-2.241-.466-4.249-1.435-5.175-2.498-.735-.843-1.096-2.106-.929-3.25.323-2.21 1.677-3.848 3.544-4.288a5.398 5.398 0 0 1 1.204-.127zm23.74.039c.037.022.091.475.121 1.006.084 1.49.365 4.397.621 6.42.128 1.008.22 1.845.206 1.861-.05.054-4.977.674-5.066.638-.05-.02-.918-1.363-1.93-2.985-1.014-1.622-1.856-2.916-1.871-2.874-.015.042.163 1.46.397 3.151.233 1.692.408 3.092.389 3.111-.02.02-.751.127-1.625.239a87.8 87.8 0 0 0-1.818.244c-.14.025-.24.002-.26-.06-.018-.055-.073-.709-.123-1.452a103.92 103.92 0 0 0-.622-6.212c-.113-.832-.176-1.538-.141-1.57.035-.032 1.206-.207 2.602-.39 1.937-.252 2.56-.308 2.63-.235.051.053.927 1.458 1.945 3.122 1.02 1.664 1.854 2.99 1.856 2.948.001-.043-.19-1.523-.426-3.29-.235-1.766-.412-3.226-.391-3.244.064-.059 3.438-.47 3.506-.428zm-23.145 2.867c-.76.05-1.267.431-1.592 1.166-.635 1.437-.194 2.313 1.483 2.948.298.113.763.254 1.033.314.66.145.997.144 1.491-.003.968-.287 1.666-1.736 1.3-2.695-.247-.648-.867-1.09-2.054-1.463-.655-.206-1.204-.296-1.66-.267z"/></svg>