<svg xmlns="http://www.w3.org/2000/svg" width="120mm" height="120mm" viewBox="0 0 120 120" fill="currentColor"><path style="stroke-width:.999998" d="M60.889 87.969C37.613 64.615 36.059 62.51 36.059 54.35c0-11.22 10.541-20.362 21.054-18.26 2.079.417 3.302-.024 5.26-1.892 2.68-2.556 6.738-4.447 9.543-4.447 1.333 0 1.872 1.355 2.729 6.868 1.236 7.948 3.954 14.631 7.71 18.957 5.529 6.366 5.62 8.874.514 14.24l-2.551 2.682-12.037-11.91c-13.41-13.269-15.732-14.307-18.83-8.422-1.869 3.55-1.523 4.011 17.258 22.959 22.172 22.368 22.872 23.546 18.93 31.852-2.03 4.278.049 5.875-24.75-19.008z"/><path style="stroke-width:.999998" d="M44.31 113.315C-16.833 93.543-4.064 4.855 59.926 4.861c43.946.003 70.48 48.875 46.348 85.366l-3.266 4.94-4.348-4.649-4.347-4.648 3.535-7.152c18.797-38.035-25.337-77.52-60.932-54.514C4.02 45.464 14.564 95.454 53.3 101.896l6.625 1.102 5.397 5.267c2.968 2.898 5.18 5.62 4.913 6.052-.945 1.528-20.432.775-25.926-1.002z"/></svg>