<svg xmlns="http://www.w3.org/2000/svg" width="185mm" height="120mm" viewBox="0 0 185 120" fill="currentColor"><path d="M90.027 114.204c-.835-.444-3.563-2.124-6.06-3.734a785.966 785.966 0 0 0-10.36-6.522c-3.2-1.977-8.245-5.124-11.21-6.992A2905.267 2905.267 0 0 0 44.15 85.53a3648.195 3648.195 0 0 1-23.476-14.739 570.394 570.394 0 0 0-6.812-4.258c-5.29-3.224-8.114-5.195-8.427-5.88-.686-1.506.225-2.36 6.653-6.238a349.049 349.049 0 0 0 8.16-5.13 456.557 456.557 0 0 1 6.893-4.4c1.371-.848 3.479-2.154 4.683-2.904a337.97 337.97 0 0 1 3.608-2.216c.78-.47 2.154-1.325 3.051-1.901 4.536-2.912 11.455-7.263 13.979-8.79a521.695 521.695 0 0 0 6.67-4.134c2.107-1.33 7.075-4.438 11.039-6.907 3.964-2.47 8.243-5.152 9.508-5.961 7.485-4.787 10.235-6.445 11.292-6.81 1.437-.494 2.983-.286 4.273.575.972.65 4.138 2.637 11.002 6.908 2.263 1.408 5.621 3.505 7.462 4.66 5.113 3.207 5.464 3.422 9.567 5.883 2.108 1.263 4.343 2.66 4.967 3.103 1.446 1.026 9.747 6.295 14.859 9.432 11.269 6.916 35.284 22.107 36.016 22.783.714.659.858 2.086.284 2.827-.195.252-2.91 2.055-6.031 4.007-3.122 1.952-6.021 3.818-6.443 4.147l-.766.598-.019 15.922c-.016 13.456-.084 16.06-.44 16.81-.871 1.835.627 1.73-25.198 1.754-18.47.017-23.603-.055-23.983-.335-.321-.238-.388-.452-.2-.64.173-.17 5.021-.358 12.347-.477 14.648-.238 12.917-.24 24.142.02 9.65.223 11.02.11 11.51-.945.289-.622.322-30.993.034-30.993-.293 0-6.282 3.669-14.967 9.169-3.52 2.229-33.08 20.732-44.986 28.16-1.56.973-4.243 2.65-5.96 3.726-1.717 1.076-3.48 2.113-3.916 2.304-1.306.574-2.853.417-4.499-.457zm4.524-1.173c.579-.308 1.947-1.197 3.04-1.976 1.092-.779 4.668-3.042 7.946-5.03 3.278-1.987 7.29-4.49 8.915-5.563a140.876 140.876 0 0 1 5.535-3.449c2.526-1.469 8.413-5.127 17.196-10.684 2.42-1.532 5.358-3.505 6.528-4.386 1.171-.881 3.15-2.097 4.4-2.703 1.248-.606 3.611-1.94 5.25-2.965a606.208 606.208 0 0 1 3.786-2.355c.444-.27 1.976-1.369 3.406-2.443 1.43-1.074 3.558-2.426 4.729-3.003 1.17-.578 3.406-1.879 4.967-2.89a165.306 165.306 0 0 1 5.2-3.222c2.798-1.639 3.378-2.283 2.714-3.017-.566-.626-2.895-1.733-3.22-1.531-.135.083-.502-.2-.815-.631-.45-.618-.798-.782-1.657-.782-.917 0-1.088-.094-1.096-.605-.005-.333-.388-.923-.852-1.312-1.212-1.019-8.834-5.665-11.839-7.217-1.407-.726-3.53-2.02-4.72-2.874-3.16-2.269-7.317-5.014-11.672-7.707a445.57 445.57 0 0 1-5.299-3.319c-.807-.522-1.544-.949-1.64-.949-.599 0-4.426-2.187-5.404-3.089-1.088-1.003-3.343-2.56-5.396-3.725-.813-.462-3.412-2.003-7.095-4.207a41.4 41.4 0 0 1-3.122-2.097c-.78-.593-2.824-1.77-4.541-2.617-1.847-.911-3.876-2.181-4.967-3.11-1.015-.863-2.803-2.103-3.974-2.755a93.57 93.57 0 0 1-4.508-2.734c-3.013-1.96-4.263-2.065-6.611-.556-.831.534-2.724 1.721-4.207 2.638-1.483.917-3.61 2.32-4.725 3.119-1.116.799-3.33 2.178-4.92 3.066-3.94 2.202-16.493 10.096-20.156 12.676-1.015.715-2.803 1.797-3.974 2.405-1.17.607-3.98 2.307-6.244 3.777-3.86 2.506-5.59 3.62-11.211 7.217-1.249.799-3.42 2.112-4.825 2.917-2.793 1.602-9.68 5.926-10.36 6.506-.922.786-4.21 2.952-5.96 3.924-2.22 1.236-5.214 3.601-5.332 4.214-.116.602 2.798 2.8 6.723 5.07 1.753 1.015 4.46 2.74 6.016 3.832 5.843 4.106 6.648 4.653 6.866 4.668.124.008 2.55 1.525 5.393 3.371a720.753 720.753 0 0 0 8.149 5.218 1326.03 1326.03 0 0 1 6.67 4.206c7.184 4.564 14.81 9.23 16.69 10.21.747.39 2.215 1.312 3.261 2.05 1.047.736 3.116 2.07 4.6 2.964 1.482.893 3.526 2.211 4.54 2.93 1.015.718 2.979 1.916 4.364 2.661 1.386.746 3.91 2.313 5.608 3.483 1.7 1.17 3.44 2.309 3.867 2.532 1.093.57 2.745.507 3.983-.15zm-4.323-4.008c-1.919-1.029-18.722-11.653-19.301-12.204-.304-.289-.478-.599-.388-.69.09-.09 9.76-.17 21.49-.178 21.437-.016 22.165.015 22.165.927 0 .289-1.722 1.428-9.65 6.382-10.416 6.51-10.135 6.358-11.757 6.358-.93 0-1.848-.214-2.56-.595zm4.382-1.378c.81-.4 1.008-.67 1.07-1.46.112-1.392-.797-2.735-2.004-2.961-1.416-.266-3.166.307-4.012 1.312-1.016 1.208-.963 2.267.148 2.923 1.829 1.081 2.907 1.123 4.798.186zm-6.571-3.529c.649-1.15 1.17-1.676 2.103-2.128 1.446-.7 3.305-.777 4.45-.185.837.433 3.14 2.875 3.14 3.33 0 .143.112.192.248.107.266-.164-.02-2.087-.493-3.33-.577-1.51-1.375-1.942-3.588-1.942-2.689 0-4.868.669-5.964 1.83-1.043 1.106-1.685 2.923-1.227 3.474.17.205.345.372.389.372.044 0 .468-.687.942-1.528zm-2.846-1.134c.574-1.587 1.99-3.292 3.524-4.244l1.449-.899-2.106-.326c-2.034-.315-13.188-.324-13.501-.01-.274.273 9.416 6.438 10.12 6.438.092 0 .323-.431.514-.959zm21.267-2.717c2.068-1.274 3.76-2.437 3.76-2.584 0-.305-13.93-.324-15.018-.02-.647.182-.622.22.474.714 1.567.707 3.326 2.453 4.191 4.16l.714 1.408 1.059-.68c.582-.375 2.751-1.724 4.82-2.998zm-30.606-6.709c-.247-.077-2.801-.23-5.676-.34-4.368-.169-5.227-.272-5.227-.628 0-.374 2.546-.432 21.003-.478 14.762-.037 21.693-.155 23.325-.398 1.46-.217 3.041-.263 4.257-.125l3.493.397c1.171.134 1.582.302 1.653.675.078.407-.127.503-1.132.532-3.26.095-11.725.303-14 .344-1.404.026-6.385.005-11.068-.046-4.684-.051-10.24-.025-12.347.057-2.107.082-4.034.087-4.28.01zM59.13 88.544c-1.52-1.034-2.078-2.01-2.19-3.828-.082-1.313.027-1.856.549-2.75 1.239-2.122 4.277-3.032 6.468-1.936 1.124.562 1.336 1.107.744 1.916-.364.499-.51.52-1.376.207-1.502-.543-2.602-.432-3.442.346-.965.895-1.03 2.562-.143 3.69.56.711.722.759 2.058.604 3.25-.378 3.153-.395 3.153.545 0 .689-.19.946-.994 1.347-1.437.718-3.66.653-4.827-.141zm11.61-.004c-1.52-1.013-2.084-2.461-2.196-5.649-.091-2.576-.06-2.764.52-3.074.503-.27.717-.24 1.161.162.44.399.544.883.544 2.535 0 2.318.389 3.714 1.147 4.12.817.437 1.274.334 2.078-.47.7-.7.749-.918.749-3.35 0-2.676.218-3.282 1.182-3.282.885 0 1.17 1.058 1.026 3.811-.163 3.104-.627 4.135-2.306 5.119-1.52.89-2.651.913-3.905.078zm10.885.367c-.35-.15-.654-.438-.674-.638-.087-.884.085-7.506.207-7.93.194-.68.878-.852 1.382-.349.34.341.433 1.16.433 3.82v3.385h1.669c1.892 0 2.538.425 1.924 1.264-.434.594-3.874.906-4.94.448zm20.091-.207c-1.53-.796-2.254-2.529-2.29-5.478-.04-3.218-.065-3.063.557-3.395 1.041-.558 1.439.302 1.439 3.11 0 2.3.063 2.587.747 3.4.898 1.068 1.651 1.041 2.488-.087.503-.677.597-1.207.597-3.37 0-2.348.054-2.604.638-2.992.514-.342.722-.356 1.065-.072.65.54.597 5.764-.072 7.075-1.01 1.983-3.298 2.783-5.169 1.81zm-10.242-.245c-.28-.338-.377-1.244-.343-3.21.026-1.508-.05-2.899-.169-3.09-.119-.193-.636-.4-1.149-.46-1.131-.13-1.819-.751-1.566-1.411.164-.427.607-.475 3.741-.405 3.072.068 3.597.149 3.869.592.416.68-.425 1.332-1.718 1.332h-.93l-.08 3.477c-.075 3.279-.114 3.481-.672 3.561-.326.047-.769-.127-.983-.386zm20.298.095c-.082-.212-.113-2.296-.07-4.631l.08-4.245h2.082c1.93 0 2.132.058 2.767.796.803.934.918 2.577.246 3.535-.487.697-.34 1.144.932 2.822.814 1.074.75 1.893-.157 2.022-.829.118-1.211-.21-2.487-2.13-.569-.858-1.14-1.453-1.27-1.322-.13.13-.276.94-.324 1.798-.082 1.468-.134 1.567-.869 1.651-.467.054-.842-.065-.93-.296zm3.456-5.757c.214-.557-.388-1.274-1.069-1.274-.403 0-.533.208-.533.851 0 .722.11.852.719.852.395 0 .792-.193.883-.43zm7.359 5.66c-.245-.246-.454-.853-.464-1.349-.01-.496-.056-2.18-.1-3.74-.046-1.561.031-3.062.17-3.335.209-.413.649-.497 2.597-.497 2.4 0 3.027.24 3.027 1.162 0 .62-.569.825-2.293.825-1.362 0-1.396.02-1.396.851 0 .841.02.852 1.526.852 2.853 0 2.981 1.724.148 1.987-1.408.13-1.532.2-1.532.851 0 .662.095.71 1.419.713 1.607.004 2.128.237 2.128.95 0 .907-.624 1.175-2.732 1.175-1.487 0-2.175-.122-2.498-.446zm-73.24-7.21c-.286-.317-.714-.575-.95-.575-.237 0-1.718-.814-3.291-1.808-15.198-9.601-22.162-13.943-25.488-15.888-3.87-2.263-4.256-3.204-1.994-4.852.741-.54 1.667-1.144 2.057-1.34.39-.197 2.306-1.4 4.258-2.672 1.95-1.273 3.942-2.516 4.425-2.762.483-.246 4.698-2.84 9.366-5.764 4.669-2.924 9.957-6.227 11.753-7.339 1.795-1.112 3.951-2.496 4.791-3.076 1.612-1.112 2.642-1.505 3.14-1.198.659.407.21 1.02-1.664 2.265-1.08.718-2.58 1.82-3.335 2.451-.754.63-2.457 1.668-3.784 2.306-1.327.638-4.293 2.358-6.591 3.823a678.383 678.383 0 0 1-9.224 5.74c-10.907 6.653-14.019 8.641-14.277 9.123-.194.363-.132.657.224 1.06.543.614 9.273 6.139 12.413 7.856 1.093.598 3.29 1.962 4.883 3.033 1.593 1.07 2.975 1.946 3.072 1.946.285 0 9.332 6.013 9.642 6.409.156.2.603.404.993.454.479.061.71.268.71.635 0 .768-.518.847-1.13.172zm86.525-.42c-.087-.227-.078-.542.02-.7.34-.55 6.881-4.798 9.12-5.925 3.016-1.516 7.771-4.314 11.795-6.939a118.486 118.486 0 0 1 6.812-4.057c3.977-2.157 5.352-3.104 5.352-3.685 0-.221-.696-.848-1.546-1.392-2.223-1.422-10.832-6.585-14.49-8.69-1.717-.989-3.824-2.267-4.683-2.841-.858-.575-2.838-1.809-4.399-2.743-1.56-.934-4.838-2.924-7.283-4.42-2.444-1.498-5.327-3.168-6.407-3.711-1.079-.544-2.527-1.413-3.218-1.932-.691-.52-2.087-1.443-3.101-2.052-1.015-.61-2.069-1.3-2.342-1.534-.54-.464-.67-1.19-.211-1.19.254 0 8.693 5.05 31.219 18.68 3.98 2.409 9.217 5.57 11.636 7.026 2.42 1.456 4.815 3.03 5.322 3.497 1.04.96 1.187 1.928.426 2.821-.414.487-29.974 18.358-32.67 19.753-1.061.548-1.154.55-1.352.034zm-70.78-4.31c-2.082-.24-5.013-1.047-6.147-1.694-1.515-.864-3.66-3.01-4.332-4.332-1.859-3.66-1.143-8.024 1.866-11.375 2.323-2.588 6.217-3.826 11.497-3.654 2.447.08 3.136.198 3.603.621.663.6 1.02 1.89.753 2.728-.168.53-.421.574-3.356.577-6.11.007-8.957 1.549-9.839 5.329-.72 3.085.242 5.333 2.853 6.669 3.023 1.546 6.875 1.295 9.867-.642 3.215-2.081 4.305-4.178 4.305-8.283 0-4.919-2.075-8.119-7.097-10.945l-2.695-1.516c-1.798-1.01-4.151-3.208-4.792-4.476-.686-1.357-1.096-3.699-.892-5.094.626-4.272 3.553-7.49 7.685-8.448 2.39-.554 5.23-.192 7.289.929 3.13 1.703 6.202 6.622 5.11 8.181-.472.673-2.043 1.539-3.1 1.708-1.373.22-1.971-.263-2.234-1.802-.406-2.386-.733-3.16-1.687-3.997-2.515-2.208-5.996-1.636-7.345 1.208-.51 1.074-.625 4.243-.195 5.373s2.192 2.641 6.263 5.37c5.798 3.885 6.943 5.057 8.598 8.8.872 1.973.91 2.213.91 5.748 0 3.66-.008 3.704-.968 5.476-1.775 3.274-5.497 6.033-9.391 6.963-2.057.49-5.016.753-6.528.579zm43.284-1.501c-4.5-1.144-7.46-2.771-12.598-6.927-3.24-2.62-6.045-4.457-8.263-5.411-2.12-.912-2.839-1.605-2.839-2.737 0-1.195.727-1.778 1.937-1.551 2.823.53 6.079 2.39 10.822 6.181 5.545 4.433 11.613 6.959 16.032 6.672 2.147-.139 4.374-.952 5.502-2.01 1.191-1.115 2.63-4.045 2.89-5.887.314-2.223.63-2.607 1.953-2.368 1.45.261 1.97.585 2.6 1.618.72 1.179.7 1.575-.194 3.836-.943 2.388-2.848 5.103-4.264 6.08-4.08 2.81-8.885 3.697-13.578 2.504zm29.375-9.77c-7.05-4.403-7.248-4.568-6.534-5.428.527-.634 9.62-6.11 10.146-6.11.257 0 2.637 1.367 5.29 3.037 4.415 2.78 4.959 3.047 6.439 3.154 2.131.154 2.376-.292.712-1.295-3.28-1.977-6.543-4.212-6.525-4.47.055-.77 1.306-.205 5.696 2.576 4.317 2.734 4.922 3.034 6.18 3.065.788.02 1.44-.1 1.499-.275.058-.171-.41-.652-1.04-1.069-1.065-.705-1.535-1.6-.84-1.6.84 0 5.373 3.01 5.373 3.567 0 .23-1.102 1.13-2.449 1.998-2.271 1.465-2.482 1.546-2.91 1.111-.425-.433-.4-.52.337-1.16.88-.764.798-1.26-.206-1.26-.83 0-2.783 1.02-7.323 3.819-3.062 1.888-3.677 2.17-4.051 1.86-.4-.332-.398-.416.018-.875.253-.28 1.873-1.37 3.601-2.423 2.545-1.55 3.039-1.955 2.599-2.127-1.395-.547-1.616-.439-9.765 4.805-1.014.652-2.1 1.175-2.413 1.162-.313-.013-2.039-.94-3.834-2.062zm6.996-1.334c1.763-1.101 3.27-2.104 3.347-2.23.143-.23-3.157-.594-5.388-.594-1.12 0-1.809-.497-1.34-.966.093-.093 1.745-.17 3.67-.17 1.985 0 3.5-.114 3.5-.265 0-.269-4.473-3.365-6.01-4.16-.814-.42-.888-.396-3.3 1.11a180.144 180.144 0 0 1-4.378 2.64c-1.05.606-1.872 1.224-1.825 1.373.096.309 7.85 5.245 8.255 5.256.145.004 1.706-.894 3.47-1.994zm-6.084-3.161c-.57-.57-.41-1.131.294-1.031.409.058.639.287.639.635 0 .664-.467.862-.933.396zm-109.616 3.86a2975.09 2975.09 0 0 0-5.049-3.174c-.831-.52-1.191-.928-1.135-1.288.124-.793 9.807-6.803 10.628-6.597.345.087 2.761 1.498 5.37 3.137 4.141 2.603 4.898 2.98 5.979 2.98.68 0 1.33.01 1.442.021.114.012.238-.084.277-.213.039-.129-1.108-.927-2.547-1.774-1.44-.847-3.097-1.922-3.683-2.389-1.09-.87-1.388-1.606-.648-1.606.513 0 8.833 5.204 9.779 6.117.851.822.68 1.068-1.754 2.54a385.64 385.64 0 0 0-4.687 2.904c-2.892 1.82-3.754 2.044-3.754.971 0-.618 2.14-2.348 4.612-3.728 1.598-.891 1.878-1.424.75-1.424-.77 0-1.738.527-6.326 3.449-2.45 1.56-4.224 2.506-4.683 2.498-.42-.007-2.39-1.052-4.57-2.425zm7.567-.85c1.61-1.026 3.001-1.984 3.09-2.128.096-.154-1.211-.261-3.174-.261h-3.336l1.072.982c.974.892 1.158 1.572.425 1.572-.497 0-4.796-2.882-5.074-3.402-.195-.364-.135-.611.22-.91.897-.753 4.347-2.784 4.73-2.784.615 0 .828.955.287 1.278-1.242.74-1.867 1.364-1.56 1.555.47.29 6.897.329 7.34.045.264-.169-.71-.892-3.247-2.41-1.994-1.194-3.798-2.17-4.01-2.17-.592 0-8.303 4.898-8.303 5.274 0 .386 7.599 5.227 8.204 5.227.224 0 1.725-.84 3.336-1.867zm74.762 2.255c-.323-.41-.588-.85-.588-.975 0-.747 1.103-4.712 2.55-9.174 2.83-8.716 4.046-13.957 3.663-15.775-.114-.542-.146-1.085-.071-1.206.227-.368 1.783-.246 2.664.21.765.395.917.384 1.898-.142.706-.379 1.595-.57 2.631-.566 5.028.02 8.534 5.189 6.831 10.07-1.402 4.018-3.817 6.102-7.072 6.102-1.848 0-3.869-.637-4.123-1.3-.308-.804-.63-.368-1.014 1.37-.215.977-.94 3.743-1.61 6.149-1.436 5.149-1.99 5.985-3.967 5.985-.962 0-1.321-.15-1.792-.748zm14.173-16c1.413-1.513 2.184-5.092 1.408-6.54-.41-.768-1.764-1.404-2.986-1.404-1.692 0-2.766 1.315-3.359 4.115l-.616 2.91c-.113.527-.014.638.572.638.39 0 1.126.255 1.637.567 1.347.82 2.394.731 3.344-.286zm47.68 9.778c0-.243.128-.364.284-.267.156.096.283.295.283.442 0 .147-.127.267-.283.267-.156 0-.284-.199-.284-.442zm1.857-.673c-.194-.314.254-.653.516-.39.27.27.22.654-.086.654-.147 0-.34-.119-.43-.264zm-65.618-3.837c-.491-.214-1.021-.617-1.178-.896-.267-.479-.346-.48-1.376-.04-4.213 1.8-8.33-.273-8.33-4.194 0-.56.337-2.192.749-3.627.436-1.52.822-3.737.922-5.307l.174-2.696.993-.077c1.252-.098 2.651.737 3.283 1.96.41.793.43 1.176.146 2.894-.18 1.089-.693 2.886-1.141 3.994-1.413 3.492-1.363 4.251.276 4.205 1.064-.03 2.327-1.1 3.12-2.641.895-1.74 1.733-5.579 1.692-7.754-.021-1.107-.029-2.173-.018-2.368.03-.52 1.915-.442 2.862.118 1.447.854 1.94 2.841 1.328 5.354a209.6 209.6 0 0 1-1.182 4.507c-.743 2.714-.755 2.865-.334 4.344.414 1.456.409 1.56-.115 2.084-.645.645-.7.65-1.87.14zm-23.444-.544c-1.717-.64-2.953-1.77-3.773-3.444-.697-1.425-.755-1.792-.646-4.073.15-3.126 1.063-5.124 3.263-7.134 4.008-3.663 9.48-2.804 11.461 1.8.54 1.255.603 1.798.48 4.148-.096 1.816-.328 3.124-.706 3.982-.68 1.545-2.77 3.533-4.533 4.313-1.672.74-4.166.923-5.546.408zm3.645-3.034c.52-.321 1.356-1.304 1.861-2.187.78-1.364.936-1.953 1.04-3.955.141-2.675-.235-3.968-1.268-4.36-2.663-1.013-5.49 2.88-5.49 7.561 0 1.884.08 2.212.696 2.828.853.852 1.904.89 3.161.113zM119.155 28.9c-.46-.336-.483-.464-.162-.852.521-.627 1.08-.571 1.464.148.252.47.239.657-.06.847-.517.327-.615.315-1.242-.143zm-48.003-3.164c-.191-.497.645-1.55 1.231-1.55.722 0 .787.911.105 1.463-.788.638-1.117.66-1.336.087zm6.855-1.55c-3.707-.132-3.979-.18-4.044-.71-.075-.602.183-.793 9.862-7.266 2.576-1.722 5.304-3.57 6.063-4.106 1.531-1.08 2.797-1.25 4.141-.555.446.23 2.962 1.865 5.592 3.633 2.63 1.768 6.186 4.091 7.903 5.163 3.696 2.307 4.659 3.127 4.205 3.581-.336.337-26.035.535-33.722.26zm30.081-1.698c.095-.153-1.334-1.255-3.176-2.45a4485.443 4485.443 0 0 1-6.833-4.441c-3.64-2.372-4.704-2.792-6.234-2.458-.94.205-14.264 8.986-14.264 9.4 0 .339 30.298.289 30.507-.05zm-16.85-.752c-.955-.668-1.52-2.163-1.167-3.09.526-1.382.358-1.334-2.927.829-3.04 2.002-3.805 2.352-4.223 1.934-.496-.496.116-1.056 3.742-3.416 1.795-1.17 3.708-2.489 4.251-2.933.543-.444 1.22-.808 1.502-.808.284 0 1.628.75 2.987 1.668a174.53 174.53 0 0 0 5.096 3.28c2.496 1.535 3.117 2.26 2.226 2.603-.22.085-2.469-1.188-5.028-2.847-2.546-1.65-4.777-3-4.958-3-.182 0-.489.19-.683.425-.302.363-.22.426.561.426 1.338 0 2.845 1.57 2.845 2.964 0 2.048-2.468 3.196-4.225 1.965zm2.508-1.366c.187-.226.298-.691.247-1.035-.231-1.561-2.505-1.328-2.505.256 0 .446.085.896.19 1 .343.344 1.721.197 2.068-.221zm-71.789 83.925c-.543-.273-1.278-.933-1.634-1.465l-.647-.969.073-13.222c.073-13.01.083-13.223.642-13.223.557 0 .57.237.71 13.4.13 12.375.18 13.44.648 13.908.476.476 1.836.511 22.746.583 19.732.067 22.28.125 22.607.518.302.364.295.488-.04.7-.236.149-9.657.26-22.263.262-20.245.004-21.927-.033-22.842-.492zm3.658-4.371c-.759-.34-1.126-.73-1.338-1.42-.19-.62-.225-3.893-.102-9.419.189-8.453.19-8.47.86-9.011.368-.299.896-.543 1.172-.543.277 0 3.169 1.68 6.426 3.731 6.743 4.247 10.689 6.669 15.572 9.556 1.874 1.107 4.556 2.821 5.96 3.81 2.665 1.874 3.24 2.744 2.188 3.307-.344.185-5.876.321-15.117.374-13.054.075-14.684.035-15.62-.385zm19.468-1.147c4.982-.401 5.254-.406 7.625-.125 2.15.255 2.453-.082.87-.97-.457-.256-2.364-1.427-4.237-2.601-1.874-1.175-4.428-2.651-5.677-3.281-1.249-.63-3.228-1.865-4.4-2.743-2.52-1.892-12.275-8.106-12.723-8.106-.756 0-.899 1.303-.878 7.999.011 3.796.107 7.476.212 8.178.172 1.14.299 1.314 1.186 1.617 1.297.443 12.672.464 18.022.032zm-15.894-1.97c-1.205-.673-1.277-1.016-1.277-6.075 0-4.511.042-4.906.569-5.383.48-.434.685-.462 1.311-.177.679.31 5.02 2.97 11.602 7.11 1.405.883 3.291 1.975 4.192 2.425 1.92.959 2.259 1.29 1.904 1.863-.215.349-1.675.428-8.995.485-6.026.048-8.914-.03-9.306-.248zm14.12-1.048c.893-.089.525-.594-.993-1.36-.82-.414-2.959-1.737-4.754-2.94-1.795-1.202-3.775-2.48-4.4-2.84a47.969 47.969 0 0 1-2.182-1.35c-.576-.382-1.16-.627-1.296-.543-.137.085-.276 2-.31 4.255-.047 3.194.027 4.19.335 4.498.317.317 1.66.39 6.75.362 3.494-.018 6.577-.055 6.85-.082zm-11.423-1.551c-.637-.32-.719-.556-.794-2.27-.07-1.577 0-1.945.391-2.095.925-.355 6.93 3.096 6.93 3.983 0 .7-5.282 1.01-6.527.382zm3.8-1.02c.438-.172.3-.3-.759-.704-.712-.272-1.446-.678-1.632-.902-.47-.566-.842-.25-.842.717 0 .537.17.859.497.944.779.204 2.147.176 2.735-.055zm107.964 7.069c-12.568-.132-14.16-.2-14.575-.613-.275-.276-.393-.681-.29-.994.25-.752 3.966-3.259 11.095-7.483 2.185-1.295 4.165-2.514 4.399-2.709.234-.194.946-.654 1.58-1.021 1.062-.614 5.885-3.591 10.766-6.646 2.086-1.306 2.651-1.456 3.59-.953 1.222.654 1.325 1.558 1.173 10.321-.114 6.57-.228 8.381-.56 8.909-.424.676-2.048 1.518-2.704 1.402-.2-.036-6.713-.131-14.474-.213zm15.58-2.106.694-.598.071-7.946c.039-4.37.017-8.107-.048-8.302-.181-.543-.916-.425-2.03.325-5.255 3.541-14.15 9.232-16.902 10.811-1.873 1.076-4.236 2.486-5.25 3.132-1.015.647-2.293 1.42-2.839 1.718-1.436.782-1.714 1.009-1.555 1.267.078.126 6.222.22 13.653.21 13.312-.02 13.522-.029 14.206-.617zm-3.668-.336c-.085-.084-3.901-.15-8.48-.147-8.795.007-9.621-.106-9.61-1.327.004-.46 3.719-3.055 8.006-5.593 1.438-.851 6.315-3.86 8.167-5.037 1.202-.765 2.466-1.354 2.903-1.355 1.405 0 1.583.713 1.687 6.733.088 5.151.062 5.485-.474 5.996-.585.558-1.926 1.004-2.199.73zm-9.82-3.809c.737-1.17 1.348-2.223 1.358-2.34.01-.115-.532.209-1.203.72-.67.513-2.075 1.433-3.122 2.045-2.454 1.435-2.49 1.901-.138 1.789l1.765-.085zm3.021 1.93c.616-.615.32-3.764-.334-3.553-.175.057-.616.67-.98 1.36-.365.691-.844 1.458-1.065 1.705-.221.246-.402.534-.402.638 0 .335 2.427.204 2.781-.15zm6.301.176c0-.296-4.3-4.9-4.73-5.065-.356-.136-.388.186-.22 2.18.108 1.287.324 2.5.48 2.695.283.355 4.47.533 4.47.19zm1.703-3.245V90.91l-1.064-.157c-.586-.087-1.631-.341-2.324-.565-.692-.224-1.364-.342-1.492-.263-.128.08.375.86 1.118 1.734 2.25 2.65 3.166 3.534 3.471 3.345.16-.099.291-1.06.291-2.137zm-.142-5.212c0-1.517-.417-1.94-1.217-1.237-.267.236-1.156.764-1.976 1.175-2.316 1.16-1.973 1.588 1.207 1.5l1.986-.053zM20.068 73.146c-.228-.593.082-1.277.579-1.277.462 0 .872.972.597 1.417-.266.43-.99.344-1.176-.14zm144.92-26.69c-.296-.358-.397-2.84-.471-11.575-.098-11.514-.479-16.752-1.254-17.253-.225-.145-9.945-.238-22.623-.216-22.563.038-23.473 0-22.515-.959.277-.277 5.251-.366 22.673-.405 21.563-.048 22.355-.03 23.395.5 2.003 1.022 1.954.596 1.872 16.192-.074 14.118-.132 14.854-1.076 13.716zm-145.118-.32c-.104-.104-.188-6.33-.188-13.836.001-13.188.02-13.679.574-14.587 1.108-1.817.25-1.757 24.925-1.757 19.72 0 22.44.052 22.756.433.197.238.266.525.153.639-.113.113-5.272.276-11.464.363-6.192.087-13.264.335-15.714.553-4 .355-4.943.345-9.224-.09-5.33-.542-8.668-.614-9.432-.206-1.03.552-1.252 1.798-1.047 5.88.106 2.115.105 8.11-.003 13.321-.178 8.595-.24 9.476-.671 9.476-.262 0-.56-.085-.665-.189zm138.552-5.313c-.692-.31-4.106-2.41-9.744-5.995-1.56-.992-5.068-3.122-7.793-4.732-6.035-3.566-11.596-7.264-12.115-8.055-.324-.494-.321-.671.019-1.135.388-.531.92-.552 15.275-.601 10.954-.038 15.048.037 15.535.283 1.128.572 1.84 1.798 1.807 3.114-.016.657-.105 4.565-.197 8.685-.141 6.292-.24 7.57-.62 7.99-.615.678-1.323.825-2.167.446zm1.117-9.886.075-8.434-.899-.464c-.805-.417-1.93-.444-10.86-.259-5.48.114-11.532.207-13.45.207-1.92 0-3.452.104-3.407.231.125.347 7.077 4.674 10.159 6.323 2.853 1.527 3.47 1.917 5.96 3.762 3.15 2.336 11.214 7.231 11.778 7.15.552-.079.57-.32.644-8.516zm-3.84 4.584c-.353-.137-1.63-.87-2.838-1.63-7.575-4.766-10.688-6.671-12.695-7.77-2.376-1.3-2.91-2.012-1.792-2.391.76-.258 17.023-.223 17.847.038 1.164.37 1.356 1.394 1.198 6.386-.12 3.814-.234 4.763-.613 5.146-.34.343-.637.402-1.107.22zm.153-6.247-.078-4.377-6.785-.06c-3.73-.034-6.97.042-7.197.17-.303.17.065.494 1.392 1.225l1.805.993.222-.813c.176-.647.38-.81.993-.8.424.009 1.432-.07 2.24-.171 1.03-.131 1.87-.05 2.815.272.741.253 1.406.4 1.478.328.323-.322 1.192.502 1.192 1.13 0 .382.207 1.213.461 1.847.342.853.412 1.585.272 2.823-.162 1.431-.116 1.712.32 1.958.28.158.607.189.729.07.12-.12.185-2.187.141-4.595zm-2.686 2.062c.389-1.942-.794-4.05-2.516-4.482-1.038-.26-2.495.097-3.245.796l-.664.618.945.727c.519.4 1.269.727 1.666.727.483 0 .84.23 1.073.696.423.842 1.489 1.701 2.12 1.71.281.004.524-.306.621-.792zM24.503 40.01c-.527-.864-.562-1.449-.563-9.306l-.001-8.383.82-.983.821-.982 5.069-.026c2.787-.015 9.652.05 15.255.141 9.285.154 10.215.212 10.5.665.225.356.227.637.007.993-.506.824-4.95 4.028-7.07 5.099-1.093.552-5.308 3.074-9.367 5.604-13.27 8.275-12.97 8.1-13.97 8.1-.755 0-1.05-.18-1.501-.922zm2.123-.766c.092-.148-.085-.404-.392-.568-.596-.32-1.058.03-.734.554.222.36.907.368 1.126.014zm9.585-6.03c3.55-2.311 6.517-4.202 6.594-4.202.203 0 8.587-5.033 10.012-6.011.664-.455 1.207-.938 1.207-1.074 0-.136-6.084-.208-13.653-.162-13.528.083-13.658.09-14.262.693-.591.59-.61.824-.61 7.768v7.159l.699.035c.384.02.879.307 1.1.64l.401.605 1.029-.625c.566-.344 3.933-2.515 7.483-4.826zm-8.271 2.68c-.564-.464-.614-.85-.785-6.07l-.182-5.575.69-.69.692-.692 9.357.125c7.905.105 9.435.192 9.855.562.708.624.618.975-.428 1.672-1.801 1.2-11.328 7.192-11.435 7.192-.06 0-1.168.683-2.461 1.518-2.55 1.644-4.014 2.456-4.434 2.456-.147 0-.538-.224-.869-.497zm2.249-1.953c.952-.63 1.219-1.036 1.697-2.584.312-1.01.567-2.006.567-2.212 0-.206-.704-.697-1.564-1.091-.86-.394-1.64-.914-1.734-1.156-.415-1.082-.528-.158-.448 3.675.047 2.263.146 4.116.22 4.116.072 0 .64-.337 1.262-.748zm5.337-3.489c1.042-.612 2.15-1.307 2.462-1.543.524-.396.48-.41-.568-.17-.624.143-1.664.263-2.31.266-1.046.006-1.197.093-1.362.788a31.679 31.679 0 0 1-.334 1.277c-.206.694-.031.643 2.112-.618zm5.241-3.607c1.641-.532 3.89-1.755 3.89-2.114 0-.15-2.6-.26-6.093-.26H32.47l.701 1.033c.386.568.701 1.196.701 1.395 0 .2.16.435.355.523.619.28 5.125-.117 6.54-.577zM31.76 25.69c-.417-.358-1.085-.651-1.486-.651-.69 0-.706.033-.31.638.23.352.852.85 1.383 1.109.883.43.973.43 1.067.013.057-.252-.238-.75-.654-1.109zm-9.361-6.233c-.1-.26-.059-.597.092-.748.418-.417 1.164-.005 1.164.644 0 .712-.992.794-1.256.104z"/></svg>
